HIERARCHY
ROOT root
{
	OFFSET	0	13.1	24.9
	CHANNELS 6  Xposition Yposition Zposition Xrotation Yrotation Zrotation
	JOINT spine_1
	{
		OFFSET	0	9.99999	0
		CHANNELS 3  Xrotation Yrotation Zrotation
		JOINT spine_2
		{
			OFFSET	0	112	-10
			CHANNELS 3  Xrotation Yrotation Zrotation
			JOINT spine_3
			{
				OFFSET	0	206.5	19.3
				CHANNELS 3  Xrotation Yrotation Zrotation
				JOINT spine_4
				{
					OFFSET	0	110.4	14.6
					CHANNELS 3  Xrotation Yrotation Zrotation
					JOINT neck_1
					{
						OFFSET	0	71.8	-50.3
						CHANNELS 3  Xrotation Yrotation Zrotation
						JOINT neck_2
						{
							OFFSET	0	86.2	-25.8
							CHANNELS 3  Xrotation Yrotation Zrotation
							JOINT head_ee
							{
								OFFSET	0	179.8	-8.7
								CHANNELS 3  Xrotation Yrotation Zrotation
								End Site
								{
									OFFSET	1	0	0
								}
							}
						}
					}
					JOINT left_clavicle
					{
						OFFSET	-43.2	22.4	-70.8
						CHANNELS 3  Xrotation Yrotation Zrotation
						JOINT left_shoulder
						{
							OFFSET	-93.9	-5.79999	48.7
							CHANNELS 3  Xrotation Yrotation Zrotation
							JOINT left_elbow
							{
								OFFSET	-291.4	-30.8	15.2
								CHANNELS 3  Xrotation Yrotation Zrotation
								JOINT left_lowarm_twist
								{
									OFFSET	-110.7	-3.89999	13.6
									CHANNELS 3  Xrotation Yrotation Zrotation
									JOINT left_hand
									{
										OFFSET	-110.7	-3.89999	13.6
										CHANNELS 3  Xrotation Yrotation Zrotation
										JOINT left_ee
										{
											OFFSET	-80.8	-5.10001	12.1
											CHANNELS 3  Xrotation Yrotation Zrotation
											End Site
											{
												OFFSET	1	0	0
											}
										}
									}
								}
							}
						}
					}
					JOINT right_clavicle
					{
						OFFSET	43.2	22.4	-70.8
						CHANNELS 3  Xrotation Yrotation Zrotation
						JOINT right_shoulder
						{
							OFFSET	93.9	-5.79999	48.7
							CHANNELS 3  Xrotation Yrotation Zrotation
							JOINT right_elbow
							{
								OFFSET	291.4	-30.8	15.2
								CHANNELS 3  Xrotation Yrotation Zrotation
								JOINT right_lowarm_twist
								{
									OFFSET	110.7	-3.89999	13.6
									CHANNELS 3  Xrotation Yrotation Zrotation
									JOINT right_hand
									{
										OFFSET	110.7	-3.89999	13.6
										CHANNELS 3  Xrotation Yrotation Zrotation
										JOINT right_ee
										{
											OFFSET	80.8	-5.10001	12.1
											CHANNELS 3  Xrotation Yrotation Zrotation
											End Site
											{
												OFFSET	1	0	0
											}
										}
									}
								}
							}
						}
					}
				}
			}
		}
	}
	JOINT left_hip
	{
		OFFSET	-82.8	-127.5	0.300001
		CHANNELS 3  Xrotation Yrotation Zrotation
		JOINT left_knee
		{
			OFFSET	-28.2	-396.7	2.2
			CHANNELS 3  Xrotation Yrotation Zrotation
			JOINT left_ankle
			{
				OFFSET	-11.7	-411.3	35.4
				CHANNELS 3  Xrotation Yrotation Zrotation
				JOINT left_toes
				{
					OFFSET	0	-60	-88.6
					CHANNELS 3  Xrotation Yrotation Zrotation
					JOINT left_foot_ee
					{
						OFFSET	-22.5	-16.5	-42.2
						CHANNELS 3  Xrotation Yrotation Zrotation
						End Site
						{
							OFFSET	1	0	0
						}
					}
				}
			}
		}
	}
	JOINT right_hip
	{
		OFFSET	82.8	-127.5	0.300001
		CHANNELS 3  Xrotation Yrotation Zrotation
		JOINT right_knee
		{
			OFFSET	28.2	-396.7	2.2
			CHANNELS 3  Xrotation Yrotation Zrotation
			JOINT right_ankle
			{
				OFFSET	11.7	-411.3	35.4
				CHANNELS 3  Xrotation Yrotation Zrotation
				JOINT right_toes
				{
					OFFSET	0	-60	-88.6
					CHANNELS 3  Xrotation Yrotation Zrotation
					JOINT right_foot_ee
					{
						OFFSET	22.5	-16.5	-42.2
						CHANNELS 3  Xrotation Yrotation Zrotation
						End Site
						{
							OFFSET	1	0	0
						}
					}
				}
			}
		}
	}
}
MOTION
Frames: 8
Frame Time: 0.02
1805.85 727.657 -600.557 -166.727 -69.0388 -166.811 2.99227 -0.0480432 -0.428231 2.99238 -0.0206967 -0.43042 2.9925 0.0479392 -0.428242 2.99224 -0.0202947 -0.430439 -14.2535 12.2688 0.327904 -14.7028 23.228 4.35765 -0.0 0.0 -0.0 -2.03352 22.112 -0.297076 -6.65985 -23.3163 67.0603 2.50016 -51.0736 1.19463 -14.6963 -0.74299 1.72086 -0.291894 9.94515 2.24739 -0.0 0.0 -0.0 6.11364 23.0996 -10.5738 -26.0662 23.8024 -64.7354 0.562906 15.5811 -0.0770146 -6.48835 0.273287 -0.782682 1.33307 -21.8371 -16.7824 0.0 0.0 0.0 14.3676 18.8038 -9.39462 -12.2232 0.307234 1.84713 16.1643 22.6311 -2.32538 -1.22173 0.0 0.0 -0.0 0.0 -0.0 19.1524 11.4435 -3.73064 -30.7359 -0.0151755 -4.66069 14.2386 17.2928 2.19581 12.0157 -0.0 -0.0 0.0 0.0 0.0 
1808.46 728.971 -601.001 -164.888 -71.2179 -164.856 2.91665 -0.12878 -0.445957 2.91675 -0.100142 -0.453248 2.91752 -0.026267 -0.463435 2.91723 -0.0991275 -0.453471 -14.3216 11.4968 -0.748155 -14.7404 22.4027 3.09008 -0.0 0.0 -0.0 -2.16786 22.3348 -0.448036 -6.9894 -23.9389 67.5308 2.65086 -52.7008 1.31322 -14.8285 -0.75164 1.73539 -0.228858 8.83809 2.19296 -0.0 0.0 -0.0 6.17435 24.7344 -10.549 -25.3628 23.6785 -65.8469 0.558284 15.4593 -0.075778 -5.34245 0.218592 -0.64675 1.39213 -22.953 -17.4804 0.0 0.0 0.0 13.8054 18.9931 -8.5766 -14.4484 0.32045 2.18826 19.5729 21.4985 -2.76341 -0.269109 0.0 0.0 -0.0 0.0 -0.0 19.0876 11.8059 -4.21374 -30.711 -0.0161767 -4.65699 15.1895 16.5697 2.31887 12.3806 -0.0 -0.0 0.0 0.0 0.0 
1813.43 728.576 -600.117 -166.206 -72.626 -166.099 2.60619 -0.0976103 -0.376121 2.60627 -0.0734791 -0.381569 2.60675 -0.00931911 -0.388468 2.60654 -0.070553 -0.382121 -14.3816 10.9496 -1.49181 -14.7756 21.8059 2.21041 -0.0 0.0 -0.0 -2.48088 22.832 -0.79725 -7.71937 -24.1817 67.6146 2.74941 -53.7031 1.39213 -14.9208 -0.757709 1.74554 -0.183668 8.05349 2.15939 -0.0 0.0 -0.0 6.10232 25.7926 -10.2856 -25.377 23.5161 -66.5962 0.551952 15.2923 -0.074099 -4.55441 0.182564 -0.552655 1.43717 -23.7673 -17.9932 0.0 0.0 0.0 14.154 18.8237 -8.1706 -15.9893 0.321835 2.42467 21.9258 20.6314 -3.05287 0.359103 -0.0 -0.0 -0.0 0.0 -0.0 18.8084 12.1052 -4.41856 -30.772 -0.0137254 -4.66602 15.9573 16.0804 2.4182 12.6684 -0.0 -0.0 0.0 0.0 0.0 
1824.83 733.868 -600.172 -165.032 -74.1388 -165.277 2.45713 -0.0177949 -0.255874 2.45717 -0.00147689 -0.256488 2.45717 0.0416519 -0.253088 2.45708 0.00115875 -0.25649 -14.4069 10.5026 -2.01455 -14.776 21.2664 1.56594 -0.0 0.0 -0.0 -2.69668 23.2727 -1.01435 -8.83092 -24.3894 67.9849 2.79526 -54.1538 1.42919 -14.9844 -0.76189 1.75251 -0.139908 7.50555 2.21598 -0.0 0.0 -0.0 6.0932 26.8425 -10.1569 -24.8467 23.5231 -66.9028 0.552962 15.3189 -0.0743658 -4.00109 0.158043 -0.486298 1.46482 -24.3927 -18.3402 0.0 0.0 0.0 15.4027 18.6058 -8.35196 -16.8769 0.319746 2.56084 23.6665 20.0095 -3.26077 0.817416 -0.0 -0.0 -0.0 0.0 -0.0 17.648 12.3822 -4.31516 -31.0466 -0.00255705 -4.70669 16.5574 15.7439 2.49562 12.9186 -0.0 -0.0 0.0 0.0 0.0 
1837.06 727.975 -597.956 -166.509 -75.3258 -166.543 2.32478 0.102314 -0.188106 2.32479 0.114077 -0.181214 2.32442 0.14328 -0.159132 2.32441 0.11635 -0.179763 -14.4487 10.2138 -2.30038 -14.8022 20.8869 1.20333 -0.0 0.0 -0.0 -2.85495 23.5936 -1.17052 -9.65979 -24.52 68.2381 2.82471 -54.4381 1.45311 -15.0239 -0.764498 1.75685 -0.109148 7.12194 2.25702 -0.0 0.0 -0.0 6.24144 27.5878 -10.4011 -24.1648 23.6575 -67.0966 0.553077 15.322 -0.0743961 -3.63554 0.142196 -0.442333 1.48256 -24.8778 -18.5841 0.0 0.0 0.0 16.5008 18.4184 -8.51299 -17.4794 0.317127 2.65325 24.8799 19.5766 -3.40238 1.14125 -0.0 -0.0 -0.0 0.0 -0.0 16.5739 12.6027 -4.16493 -31.3228 0.00886975 -4.74754 16.9877 15.506 2.55066 13.0941 -0.0 -0.0 0.0 0.0 0.0 
1844.98 732.583 -596.959 -166.802 -75.9667 -166.63 2.32056 0.209895 -0.176987 2.32055 0.220732 -0.163272 2.31992 0.245329 -0.123263 2.31997 0.222783 -0.160461 -14.4304 10.0115 -2.50567 -14.7702 20.6236 0.935263 -0.0 0.0 -0.0 -2.97263 23.7984 -1.29139 -10.3608 -24.5738 68.3025 2.84499 -54.6316 1.46962 -15.0358 -0.76528 1.75815 -0.0872718 6.89501 2.3055 -0.0 0.0 -0.0 6.36221 28.271 -10.5905 -23.4578 23.8354 -67.0711 0.555779 15.3933 -0.0751116 -3.39375 0.131869 -0.413198 1.49152 -25.2175 -18.7327 0.0 0.0 0.0 17.319 18.3603 -8.2978 -17.8986 0.314732 2.71752 25.7848 19.2948 -3.50675 1.38252 -0.0 -0.0 -0.0 0.0 -0.0 15.3149 12.7758 -3.99317 -31.5162 0.0169865 -4.7761 17.3402 15.3434 2.59603 13.2336 -0.0 -0.0 0.0 0.0 0.0 
1850.38 731.463 -596.383 -164.687 -76.7331 -164.23 2.34108 0.317646 -0.123713 2.34103 0.324874 -0.103249 2.34045 0.337702 -0.0464901 2.34059 0.326121 -0.0992408 -14.4392 9.8779 -2.62523 -14.771 20.4404 0.777441 -0.0 0.0 -0.0 -3.05319 23.9606 -1.36893 -11.0051 -24.5812 68.3518 2.83503 -54.5368 1.46151 -15.0434 -0.765782 1.75898 -0.0733771 6.76723 2.34317 -0.0 0.0 -0.0 6.60074 28.8871 -11.0428 -22.5512 24.0733 -66.8331 0.563438 15.5952 -0.0771579 -3.22481 0.124727 -0.392817 1.49535 -25.4536 -18.8209 0.0 0.0 0.0 18.4253 18.2171 -8.2621 -17.9517 0.314395 2.72566 26.4493 19.0799 -3.58229 1.55361 -0.0 -0.0 -0.0 0.0 -0.0 13.9691 12.8955 -3.76535 -31.6531 0.0227954 -4.79632 17.6389 15.2339 2.63478 13.3386 -0.0 -0.0 0.0 0.0 0.0 
1863.9 732.65 -594.972 -165.869 -77.3218 -165.846 2.23288 0.451192 -0.0177888 2.23277 0.45141 0.0109584 2.23287 0.442804 0.0884031 2.23314 0.451209 0.0173596 -14.4084 9.76481 -2.4744 -14.7298 20.134 0.874547 -0.0 0.0 -0.0 -2.97353 23.2644 -1.39811 -12.9059 -24.3931 68.0758 2.46876 -50.7194 1.17026 -14.6023 -0.736854 1.7105 -0.0768617 7.49374 2.62069 -0.0 0.0 -0.0 6.78183 29.1222 -11.4119 -20.4857 25.1834 -65.7235 0.571466 15.8063 -0.0793303 -3.1122 0.119999 -0.37922 1.529 -25.9508 -19.1584 0.0 0.0 0.0 21.2039 16.5625 -8.38653 -18.8154 0.307853 2.85802 25.389 20.2534 -3.4731 1.44308 -0.0 -0.0 -0.0 0.0 -0.0 11.3627 13.0199 -3.27161 -30.2522 -0.0343234 -4.58892 19.1436 15.3569 2.84045 13.2216 -0.0 -0.0 0.0 0.0 0.0 
